name D:\school\WTK\thesis\model\3dpredictsim\Results\MidTarsalJoint\Fal_s1_bCst_PF_Natali2010_ls150_MT_k300_MTP_Mu5_ig23.mot
datacolumns 128
datarows 4
range 1.12893625 1.16280434
endheader
time	pelvis_tilt	pelvis_list	pelvis_rotation	pelvis_tx	pelvis_ty	pelvis_tz	hip_flexion_l	hip_adduction_l	hip_rotation_l	hip_flexion_r	hip_adduction_r	hip_rotation_r	knee_angle_l	knee_angle_r	ankle_angle_l	ankle_angle_r	subtalar_angle_l	subtalar_angle_r	tmt_angle_l	tmt_angle_r	mtp_angle_l	mtp_angle_r	lumbar_extension	lumbar_bending	lumbar_rotation	arm_flex_l	arm_add_l	arm_rot_l	arm_flex_r	arm_add_r	arm_rot_r	elbow_flex_l	elbow_flex_r	pro_sup_l	pro_sup_r	glut_med1_l/activation	glut_med2_l/activation	glut_med3_l/activation	glut_min1_l/activation	glut_min2_l/activation	glut_min3_l/activation	semimem_l/activation	semiten_l/activation	bifemlh_l/activation	bifemsh_l/activation	sar_l/activation	add_long_l/activation	add_brev_l/activation	add_mag1_l/activation	add_mag2_l/activation	add_mag3_l/activation	tfl_l/activation	pect_l/activation	grac_l/activation	glut_max1_l/activation	glut_max2_l/activation	glut_max3_l/activation	iliacus_l/activation	psoas_l/activation	quad_fem_l/activation	gem_l/activation	peri_l/activation	rect_fem_l/activation	vas_med_l/activation	vas_int_l/activation	vas_lat_l/activation	med_gas_l/activation	lat_gas_l/activation	soleus_l/activation	tib_post_l/activation	flex_dig_l/activation	flex_hal_l/activation	tib_ant_l/activation	per_brev_l/activation	per_long_l/activation	per_tert_l/activation	ext_dig_l/activation	ext_hal_l/activation	ercspn_l/activation	intobl_l/activation	extobl_l/activation	glut_med1_r/activation	glut_med2_r/activation	glut_med3_r/activation	glut_min1_r/activation	glut_min2_r/activation	glut_min3_r/activation	semimem_r/activation	semiten_r/activation	bifemlh_r/activation	bifemsh_r/activation	sar_r/activation	add_long_r/activation	add_brev_r/activation	add_mag1_r/activation	add_mag2_r/activation	add_mag3_r/activation	tfl_r/activation	pect_r/activation	grac_r/activation	glut_max1_r/activation	glut_max2_r/activation	glut_max3_r/activation	iliacus_r/activation	psoas_r/activation	quad_fem_r/activation	gem_r/activation	peri_r/activation	rect_fem_r/activation	vas_med_r/activation	vas_int_r/activation	vas_lat_r/activation	med_gas_r/activation	lat_gas_r/activation	soleus_r/activation	tib_post_r/activation	flex_dig_r/activation	flex_hal_r/activation	tib_ant_r/activation	per_brev_r/activation	per_long_r/activation	per_tert_r/activation	ext_dig_r/activation	ext_hal_r/activation	ercspn_r/activation	intobl_r/activation	extobl_r/activation	
          1.12893625	         -2.93008001	         -2.09351025	          5.13709371	          1.41117031	          0.91991100	         -0.00188950	        -16.39841674	         -0.71448795	          6.96297036	         29.17689121	          3.32380708	         -2.88250854	         -8.47512893	        -11.09728660	         -2.20078082	          4.68493560	          7.65250762	         -2.74321838	          4.63425574	         -0.45616712	         12.69429202	          4.40810555	         -2.12032436	          0.35407211	         -1.84379111	          4.90031547	        -13.45484471	         16.39580559	         -4.36117879	        -13.45192948	          7.38601377	         33.95417669	         16.00974263	         86.51662706	         86.51662706	          0.34260008	          0.09964720	          0.07370791	          0.30760736	          0.20202598	          0.10440604	          0.05000059	          0.05000012	          0.05000007	          0.05940825	          0.10558381	          0.05000007	          0.05000006	          0.05000008	          0.05000022	          0.05000014	          0.30424013	          0.05000032	          0.05000015	          0.05000096	          0.05000074	          0.05000032	          0.39143780	          0.60998607	          0.05000003	          0.05000016	          0.05000023	          0.21540172	          0.05000014	          0.05000012	          0.05000011	          0.28556841	          0.38897951	          0.34785622	          0.28483490	          0.31909519	          0.38487430	          0.05000002	          0.05940885	          0.13362119	          0.05000018	          0.05000006	          0.05000021	          0.05000000	          0.05000000	          0.05000002	          0.05940780	          0.05000136	          0.05940696	          0.05000022	          0.05000035	          0.05000116	          0.09008233	          0.05940806	          0.20811569	          0.05000020	          0.05000015	          0.12209533	          0.20397242	          0.18063332	          0.17616510	          0.09959123	          0.05940750	          0.05000106	          0.13224238	          0.05940785	          0.05940800	          0.10112022	          0.05000004	          0.05000005	          0.22094603	          0.05000069	          0.05000063	          0.05000004	          0.07484530	          0.07623436	          0.06354383	          0.05940777	          0.05940774	          0.05940778	          0.05000005	          0.05000019	          0.05000018	          0.48272776	          0.25773943	          0.17969815	          0.09608962	          0.43402782	          0.05000012	          0.05923875	          0.12148660	          0.10313454	
          1.14022561	         -2.92867173	         -2.17458106	          5.39192143	          1.42813951	          0.91908757	         -0.00167952	        -16.28363221	         -0.99879281	          6.77195240	         28.54386972	          3.72399495	         -2.69306699	        -10.34773023	        -11.12170060	         -2.73919748	          4.05171364	          8.68045938	         -3.14466511	          3.77517353	         -0.50303502	         14.43159913	          4.48370226	         -1.92709170	          0.55171686	         -1.91798339	          4.61767887	        -13.46772365	         16.71384471	         -5.22868561	        -13.44970805	          7.08719429	         35.10309307	         15.65352100	         86.51662706	         86.51662706	          0.28834607	          0.08386711	          0.06203559	          0.25889480	          0.17003324	          0.08787235	          0.05000097	          0.05000022	          0.05000038	          0.05000043	          0.08886368	          0.11385016	          0.10067509	          0.07057828	          0.05000759	          0.05002144	          0.25606082	          0.07683348	          0.05003655	          0.05000081	          0.05000065	          0.05000083	          0.32944986	          0.52699881	          0.05179736	          0.05940844	          0.05940783	          0.18129084	          0.05002023	          0.16040193	          0.14019490	          0.24034589	          0.32738084	          0.29990867	          0.24711083	          0.30082683	          0.39820281	          0.05000000	          0.05000096	          0.12836910	          0.05000004	          0.05000000	          0.05000005	          0.05000002	          0.07375841	          0.05797260	          0.05000003	          0.05000003	          0.05000008	          0.05000012	          0.05000009	          0.05000006	          0.07581693	          0.05000025	          0.17515861	          0.05000050	          0.05940781	          0.11839467	          0.26079748	          0.29573690	          0.17665715	          0.08382018	          0.05000004	          0.07058693	          0.11130088	          0.05000016	          0.05000022	          0.12768531	          0.07058552	          0.06891101	          0.55549283	          0.20007895	          0.20361286	          0.08032512	          0.19645326	          0.19786958	          0.16726095	          0.05000000	          0.05000001	          0.05000000	          0.05767540	          0.05000096	          0.05000180	          0.55628489	          0.21692394	          0.20334271	          0.26782769	          0.44251433	          0.05940811	          0.05000000	          0.10224802	          0.08680219	
          1.15151498	         -2.92328286	         -2.25864016	          5.61902469	          1.44545005	          0.91827688	         -0.00149592	        -16.11596393	         -1.28545744	          6.57211171	         27.77102075	          4.03050411	         -2.43455972	        -12.29823321	        -11.48536099	         -3.42455153	          3.49508148	          9.68759900	         -3.56715294	          2.77466019	         -0.67076580	         16.27873181	          4.62100972	         -1.71005299	          0.76125531	         -1.98106167	          4.24801478	        -13.47889977	         16.94944750	         -6.13230688	        -13.45616617	          6.84194699	         36.24915019	         15.34939130	         86.51662706	         86.51662706	          0.38053996	          0.07058595	          0.05221168	          0.21789641	          0.14310686	          0.07395693	          0.05000105	          0.05000029	          0.05000018	          0.05000007	          0.07479135	          0.15410026	          0.13134291	          0.05940829	          0.05940761	          0.05940737	          0.21551149	          0.07879951	          0.05000784	          0.05001097	          0.05003861	          0.05940735	          0.27727861	          0.51801622	          0.05874642	          0.05000083	          0.05000006	          0.15258169	          0.07747593	          0.13500083	          0.11799376	          0.20228478	          0.27553692	          0.25241522	          0.20797845	          0.25318815	          0.33514377	          0.05000002	          0.05000009	          0.16440988	          0.05000006	          0.05000004	          0.05000012	          0.05424099	          0.06207805	          0.05940789	          0.27339850	          0.05000018	          0.05000040	          0.05000010	          0.05000012	          0.29868069	          0.08927700	          0.08329317	          0.15580207	          0.05000004	          0.05000024	          0.09964575	          0.21949771	          0.24890415	          0.14868187	          0.10209612	          0.05000053	          0.05940908	          0.09367545	          0.05000063	          0.10850514	          0.10746515	          0.05940769	          0.05799834	          0.46752516	          0.16839453	          0.18971220	          0.06760486	          0.16534302	          0.16653505	          0.14077358	          0.05754282	          0.05790603	          0.05786297	          0.05000002	          0.05000014	          0.05000015	          0.54599275	          0.35385568	          0.17114171	          0.22541471	          0.49980551	          0.05000026	          0.05000000	          0.11839607	          0.07305622	
          1.16280434	         -2.91563116	         -2.34727454	          5.81061951	          1.46291827	          0.91749788	         -0.00130540	        -15.85597031	         -1.57149956	          6.37675475	         26.88053053	          4.28077975	         -2.16604917	        -14.37544713	        -11.80325029	         -4.26465250	          2.99352433	         10.66277835	         -3.99568106	          1.67073194	         -0.61600295	         18.17269329	          4.85203397	         -1.48849275	          0.98341071	         -2.03485535	          3.81725986	        -13.49296081	         17.11445635	         -7.02802229	        -13.46938860	          6.66401258	         37.38219029	         15.07434929	         86.51662706	         86.51662706	          0.32132360	          0.05940800	          0.05000002	          0.33827357	          0.12044454	          0.06224516	          0.05000096	          0.05000008	          0.05000007	          0.05000013	          0.06294770	          0.14113670	          0.11054359	          0.05000055	          0.05000050	          0.05000023	          0.22884023	          0.07104958	          0.05000023	          0.05000040	          0.05000024	          0.05000018	          0.23336889	          0.47073703	          0.05000002	          0.05000019	          0.05000014	          0.12842037	          0.07773623	          0.12465757	          0.11839685	          0.17025103	          0.23190298	          0.21244282	          0.17504306	          0.21309342	          0.28207058	          0.08354421	          0.13338236	          0.15028288	          0.05000072	          0.09933493	          0.05000019	          0.06972389	          0.05224739	          0.05000008	          0.34458553	          0.27328897	          0.27044323	          0.11893086	          0.24477074	          0.25138185	          0.07513915	          0.07272778	          0.13112932	          0.07058635	          0.05000093	          0.08386590	          0.18473813	          0.20948783	          0.12513678	          0.13608073	          0.05000019	          0.05000120	          0.07884115	          0.19880770	          0.16315599	          0.11286380	          0.05000002	          0.05000003	          0.39348804	          0.14172766	          0.15966952	          0.05689899	          0.13915968	          0.14582617	          0.11848095	          0.05000008	          0.05000011	          0.05000001	          0.05000001	          0.05000021	          0.05000014	          0.62961320	          0.32155251	          0.17228587	          0.55804229	          0.46516770	          0.19608642	          0.07232651	          0.09964692	          0.06148706	
